<mxfile host="app.diagrams.net" modified="2020-05-02T10:05:01.155Z" agent="5.0 (X11; Linux x86_64) AppleWebKit/537.36 (KHTML, like Gecko) Chrome/80.0.3987.100 Safari/537.36" etag="eoTAFekwscM-x96xlnF5" version="13.0.5" type="github">
  <diagram id="BG4hHCraEbVU9aoU92x2" name="Page-1">
    <mxGraphModel dx="1042" dy="793" grid="1" gridSize="10" guides="1" tooltips="1" connect="1" arrows="1" fold="1" page="1" pageScale="1" pageWidth="850" pageHeight="1100" math="0" shadow="0">
      <root>
        <mxCell id="0" />
        <mxCell id="1" parent="0" />
        <mxCell id="Z91ywrtY8EX-kW2qAht5-5" value="Raspberry PI" style="rounded=0;whiteSpace=wrap;html=1;" vertex="1" parent="1">
          <mxGeometry x="200" y="280" width="100" height="120" as="geometry" />
        </mxCell>
        <mxCell id="Z91ywrtY8EX-kW2qAht5-6" value="Optocouper" style="rounded=0;whiteSpace=wrap;html=1;" vertex="1" parent="1">
          <mxGeometry x="400" y="280" width="100" height="120" as="geometry" />
        </mxCell>
        <mxCell id="Z91ywrtY8EX-kW2qAht5-7" value="&lt;div&gt;Jarolift&lt;/div&gt;&lt;div&gt;Remote&lt;/div&gt;&lt;div&gt;Control&lt;br&gt;&lt;/div&gt;" style="rounded=0;whiteSpace=wrap;html=1;" vertex="1" parent="1">
          <mxGeometry x="600" y="280" width="100" height="120" as="geometry" />
        </mxCell>
        <mxCell id="Z91ywrtY8EX-kW2qAht5-8" value="" style="endArrow=classic;html=1;entryX=0;entryY=0.5;entryDx=0;entryDy=0;exitX=1;exitY=0.5;exitDx=0;exitDy=0;" edge="1" parent="1" source="Z91ywrtY8EX-kW2qAht5-5" target="Z91ywrtY8EX-kW2qAht5-6">
          <mxGeometry width="50" height="50" relative="1" as="geometry">
            <mxPoint x="400" y="420" as="sourcePoint" />
            <mxPoint x="450" y="370" as="targetPoint" />
          </mxGeometry>
        </mxCell>
        <mxCell id="Z91ywrtY8EX-kW2qAht5-9" value="" style="endArrow=classic;html=1;exitX=1;exitY=0.5;exitDx=0;exitDy=0;" edge="1" parent="1" source="Z91ywrtY8EX-kW2qAht5-6" target="Z91ywrtY8EX-kW2qAht5-7">
          <mxGeometry width="50" height="50" relative="1" as="geometry">
            <mxPoint x="310" y="350" as="sourcePoint" />
            <mxPoint x="410" y="350" as="targetPoint" />
          </mxGeometry>
        </mxCell>
      </root>
    </mxGraphModel>
  </diagram>
</mxfile>
